<svg width="18" height="18" viewBox="0 0 18 18" fill="none" xmlns="http://www.w3.org/2000/svg">
<path d="M9.58611 12.9483L7.56898 14.9713C6.40438 16.251 4.28069 16.251 3.00951 14.9713C2.37012 14.3276 2.05804 13.5843 2.05804 12.6264C2.05804 11.6686 2.37774 10.9176 3.00951 10.2816L5.01903 8.25096C5.23216 8.0364 5.23216 7.71456 5.01903 7.50766C4.8059 7.2931 4.4862 7.2931 4.28068 7.50766L2.27117 9.53065C1.42626 10.3889 1 11.454 1 12.6264C1 13.7988 1.42626 14.864 2.27117 15.7222C3.11608 16.5728 4.28068 17.0019 5.34634 17.0019C6.51094 17.0019 7.56898 16.5728 8.31494 15.7222L10.3245 13.6992C10.5376 13.4847 10.5376 13.1628 10.3245 12.9559C10.1113 12.7337 9.79163 12.7337 9.58611 12.9483Z" fill="#9893AB" stroke="#9893AB" stroke-width="0.5"/>
<path d="M15.7288 2.28161C14.0313 0.572797 11.3824 0.572797 9.6926 2.28161L7.67547 4.31226C7.46234 4.52682 7.46234 4.84866 7.67547 5.05556C7.8886 5.27012 8.2083 5.27012 8.41382 5.05556L10.4309 3.03257C11.7021 1.75287 13.7192 1.75287 14.9904 3.03257C16.2616 4.31226 16.2616 6.34291 14.9904 7.62261L12.9809 9.6456C12.7678 9.86016 12.7678 10.182 12.9809 10.3889C13.0875 10.4962 13.3006 10.4962 13.4072 10.4962C13.5137 10.4962 13.6203 10.4962 13.7268 10.3889L15.7364 8.3659C17.4262 6.65709 17.4262 3.99042 15.7288 2.28161Z" fill="#9893AB" stroke="#9893AB" stroke-width="0.5"/>
<path d="M4.91961 13.1629C5.02618 13.2701 5.23931 13.2701 5.34587 13.2701C5.559 13.2701 5.66557 13.1629 5.66557 13.1629L12.9805 5.79887C13.1936 5.58431 13.1936 5.26247 12.9805 5.05557C12.7674 4.84101 12.4477 4.84101 12.2422 5.05557L4.91961 12.4196C4.70648 12.6265 4.70648 12.9483 4.91961 13.1629Z" fill="#9893AB" stroke="#9893AB" stroke-width="0.5"/>
</svg>
