<svg width="24" height="24" viewBox="0 0 24 24" fill="none" xmlns="http://www.w3.org/2000/svg">
<path d="M22.0312 2.25H18.75V0.75C18.75 0.375 18.375 0 18 0C17.625 0 17.25 0.375 17.25 0.75V2.25H12.75V0.75C12.75 0.375 12.375 0 12 0C11.625 0 11.25 0.375 11.25 0.75V2.25H6.75V0.75C6.75 0.375 6.375 0 6 0C5.625 0 5.25 0.375 5.25 0.75V2.25H1.96875C0.9375 2.25 0 3.1875 0 4.21875V21.9375C0 23.0625 0.9375 23.9062 1.96875 23.9062H21.9375C23.0625 23.9062 23.9062 22.9688 23.9062 21.9375V4.21875C24 3.1875 23.0625 2.25 22.0312 2.25ZM22.5 22.0312C22.5 22.3125 22.3125 22.5 22.0312 22.5H1.96875C1.6875 22.5 1.5 22.3125 1.5 22.0312V4.21875C1.5 3.9375 1.6875 3.75 1.96875 3.75H5.25V5.25C5.25 5.625 5.625 6 6 6C6.375 6 6.75 5.625 6.75 5.25V3.75H11.25V5.25C11.25 5.625 11.625 6 12 6C12.375 6 12.75 5.625 12.75 5.25V3.75H17.25V5.25C17.25 5.625 17.625 6 18 6C18.375 6 18.75 5.625 18.75 5.25V3.75H22.0312C22.3125 3.75 22.5 3.9375 22.5 4.21875V22.0312Z" fill="#473F69"/>
<path d="M8.25 9H5.25V11.25H8.25V9Z" fill="#473F69"/>
<path d="M8.25 12.75H5.25V15H8.25V12.75Z" fill="#473F69"/>
<path d="M8.25 16.5H5.25V18.75H8.25V16.5Z" fill="#473F69"/>
<path d="M13.5 16.5H10.5V18.75H13.5V16.5Z" fill="#473F69"/>
<path d="M13.5 12.75H10.5V15H13.5V12.75Z" fill="#473F69"/>
<path d="M13.5 9H10.5V11.25H13.5V9Z" fill="#473F69"/>
<path d="M18.75 16.5H15.75V18.75H18.75V16.5Z" fill="#473F69"/>
<path d="M18.75 12.75H15.75V15H18.75V12.75Z" fill="#473F69"/>
<path d="M18.75 9H15.75V11.25H18.75V9Z" fill="#473F69"/>
</svg>
