<svg width="21" height="18" viewBox="0 0 21 18" fill="none" xmlns="http://www.w3.org/2000/svg">
<path d="M16.3184 9.64087V2.73777C16.3184 1.78248 15.5326 1 14.5624 1H2.75594C1.78581 1 1 1.77768 1 2.73777V9.64087C1 10.5962 1.78581 11.3786 2.75594 11.3786H3.25555V13.462C3.25555 13.8461 3.57084 14.1581 3.96375 14.1581C4.16747 14.1581 4.3615 14.0717 4.49732 13.9181L6.71407 11.3786H14.577C15.5325 11.3786 16.3184 10.5962 16.3184 9.64087ZM6.48609 10.4377C6.34542 10.4377 6.2193 10.4954 6.12714 10.601L4.20143 12.7996V10.9082C4.20143 10.649 3.988 10.4377 3.72607 10.4377H2.75594C2.31453 10.4377 1.95073 10.0825 1.95073 9.64087V2.73777C1.95073 2.30093 2.30968 1.94089 2.75594 1.94089H14.5673C15.0087 1.94089 15.3725 2.29613 15.3725 2.73777V9.64087C15.3725 10.0777 15.0135 10.4377 14.5673 10.4377H6.48609Z" fill="#473F69" stroke="#473F69" stroke-width="0.25"/>
<path d="M16.5124 16.7552C16.6482 16.9136 16.8422 16.9952 17.0411 16.9952C17.1236 16.9952 17.206 16.9808 17.2885 16.9472C17.5698 16.8416 17.7445 16.592 17.7445 16.2943V14.2109H18.2441C19.2094 14.2109 20 13.4332 20 12.4732V5.57966C20 4.62437 19.2142 3.84189 18.2441 3.84189C17.9821 3.84189 17.7687 4.05311 17.7687 4.31234C17.7687 4.57156 17.9821 4.78278 18.2441 4.78278C18.6855 4.78278 19.0493 5.13802 19.0493 5.57966V12.4828C19.0493 12.9196 18.6903 13.2796 18.2441 13.2796H17.2691C17.0072 13.2796 16.7937 13.4909 16.7937 13.7501V15.6415L14.868 13.4429C14.7807 13.3372 14.6449 13.2796 14.5091 13.2796H7.36892C7.10698 13.2796 6.89355 13.4909 6.89355 13.7501C6.89355 14.0093 7.10698 14.2205 7.36892 14.2205H14.2908L16.5124 16.7552Z" fill="#473F69" stroke="#473F69" stroke-width="0.25"/>
<path d="M9.22685 6.35253C9.22685 6.65977 8.97462 6.91419 8.65932 6.91419C8.34403 6.91419 8.0918 6.66457 8.0918 6.35253C8.0918 6.0405 8.34403 5.79088 8.65932 5.79088C8.97462 5.79088 9.22685 6.0453 9.22685 6.35253Z" fill="#473F69" stroke="#473F69" stroke-width="0.25"/>
<path d="M11.1233 6.35253C11.1233 6.65977 10.8711 6.91419 10.5558 6.91419C10.2454 6.91419 9.98828 6.66457 9.98828 6.35253C9.98828 6.0405 10.2405 5.79088 10.5558 5.79088C10.8711 5.79088 11.1233 6.0453 11.1233 6.35253Z" fill="#473F69" stroke="#473F69" stroke-width="0.25"/>
<path d="M7.33037 6.35253C7.33037 6.65977 7.07813 6.91419 6.76284 6.91419C6.44755 6.91419 6.19531 6.66457 6.19531 6.35253C6.19531 6.0405 6.44755 5.79088 6.76284 5.79088C7.07813 5.79088 7.33037 6.0453 7.33037 6.35253Z" fill="#473F69" stroke="#473F69" stroke-width="0.25"/>
</svg>
