<svg width="16" height="15" viewBox="0 0 16 15" fill="none" xmlns="http://www.w3.org/2000/svg">
<path d="M7.88536 14.4407C7.88254 14.4407 7.88254 14.4407 7.88254 14.4407C6.04307 14.4407 4.31611 13.7407 3.01385 12.4696C1.7116 11.1986 1 9.51025 1 7.7176C1 5.92222 1.71722 4.23664 3.01948 2.96559C4.31892 1.69729 6.0487 1 7.88536 1C7.88817 1 7.88817 1 7.88817 1C8.85853 1 9.80077 1.19491 10.6868 1.58199C10.9793 1.70827 11.1115 2.04594 10.9821 2.33144C10.8527 2.61695 10.5067 2.74597 10.2142 2.61969C9.47731 2.2985 8.6954 2.13653 7.88817 2.13653H7.88536C6.35809 2.13653 4.92364 2.71578 3.84077 3.76995C2.76072 4.82412 2.16444 6.22694 2.16162 7.7176C2.15881 10.7978 4.72394 13.3042 7.87973 13.3042H7.88254C9.40981 13.3042 10.8443 12.7249 11.9271 11.6707C13.0072 10.6166 13.6035 9.21376 13.6063 7.72309V7.15208C13.6063 6.83913 13.8679 6.58382 14.1885 6.58382C14.5091 6.58382 14.7707 6.83913 14.7707 7.15208V7.72309C14.7707 9.51848 14.0535 11.2068 12.7512 12.4751C11.4518 13.7434 9.72202 14.4407 7.88536 14.4407Z" fill="#00CD39" stroke="#00CD39" stroke-width="0.25"/>
<path d="M7.8847 9.52122C7.73563 9.52122 7.58656 9.46632 7.47405 9.35376L5.58395 7.50896C5.35613 7.2866 5.35613 6.92697 5.58395 6.70735C5.81178 6.48499 6.18024 6.48499 6.40525 6.70735L7.8847 8.15135L14.4072 1.78514C14.635 1.56277 15.0035 1.56277 15.2285 1.78514C15.4563 2.0075 15.4563 2.36713 15.2285 2.58675L8.29534 9.35651C8.18284 9.46632 8.03377 9.52122 7.8847 9.52122Z" fill="#00CD39" stroke="#00CD39" stroke-width="0.25"/>
</svg>
