<svg width="16" height="17" viewBox="0 0 16 17" fill="none" xmlns="http://www.w3.org/2000/svg">
<path d="M6.63956 16.25C6.54743 16.25 6.4553 16.2254 6.37238 16.1792C6.20962 16.0839 6.10828 15.9085 6.10828 15.7209V8.83027L1.38819 3.63462C1.29914 3.53926 1.25 3.41006 1.25 3.27778V1.03218C1.25 0.736865 1.48646 0.5 1.78128 0.5H14.2187C14.5105 0.5 14.75 0.736865 14.75 1.03218V3.28086C14.75 3.41313 14.7009 3.53926 14.6118 3.6377L9.88865 8.8272V14.1613C9.88865 14.352 9.78731 14.5273 9.62147 14.6227L6.90059 16.1792C6.82075 16.2254 6.72862 16.25 6.63956 16.25ZM2.30949 3.07168L7.02957 8.26426C7.11863 8.3627 7.16777 8.48882 7.16777 8.62109V14.8042L8.82916 13.8537V8.62417C8.82916 8.49189 8.8783 8.36577 8.96736 8.26733L13.6874 3.07168V1.56128H2.30949V3.07168Z" fill="white" stroke="white" stroke-width="0.75"/>
</svg>
