<svg width="16" height="16" viewBox="0 0 16 16" fill="none" xmlns="http://www.w3.org/2000/svg">
<path d="M14.5938 3.75H12.6875C12.9812 3.35938 13.1562 2.87188 13.1562 2.34375C13.1562 1.05 12.1062 0 10.8125 0C10.0344 0 9.45938 0.278125 9.00625 0.878125C8.625 1.37812 8.35 2.07812 8 2.9625C7.65312 2.07812 7.375 1.37812 6.99375 0.878125C6.54063 0.278125 5.96562 0 5.1875 0C3.89375 0 2.84375 1.05 2.84375 2.34375C2.84375 2.87188 3.01875 3.35938 3.3125 3.75H1.40625C0.63125 3.75 0 4.38125 0 5.15625V6.09375C0 6.70625 0.390625 7.225 0.9375 7.41875V14.5938C0.9375 15.3687 1.56875 16 2.34375 16H13.6562C14.4312 16 15.0625 15.3687 15.0625 14.5938V7.41875C15.6094 7.225 16 6.70312 16 6.09375V5.15625C16 4.38125 15.3687 3.75 14.5938 3.75ZM10.8125 0.9375C11.5875 0.9375 12.2188 1.56875 12.2188 2.34375C12.2188 3.11875 11.5875 3.75 10.8125 3.75H8.69687C8.75312 3.60625 8.80937 3.46562 8.85938 3.33437C9.57812 1.5125 9.85 0.9375 10.8125 0.9375ZM8.9375 15.0625H7.0625V4.6875C7.15938 4.6875 8.4 4.6875 8.9375 4.6875V15.0625ZM3.78125 2.34375C3.78125 1.56875 4.4125 0.9375 5.1875 0.9375C6.15 0.9375 6.42188 1.5125 7.14062 3.33437C7.19375 3.46562 7.24687 3.60313 7.30312 3.75H5.1875C4.4125 3.75 3.78125 3.11875 3.78125 2.34375ZM0.9375 5.15625C0.9375 4.89687 1.14688 4.6875 1.40625 4.6875H6.125V6.5625H1.40625C1.14688 6.5625 0.9375 6.35313 0.9375 6.09375V5.15625ZM1.875 14.5938V7.5H6.125V15.0625H2.34375C2.08437 15.0625 1.875 14.8531 1.875 14.5938ZM13.6562 15.0625H9.875V7.5H14.125V14.5938C14.125 14.8531 13.9156 15.0625 13.6562 15.0625ZM15.0625 6.09375C15.0625 6.35313 14.8531 6.5625 14.5938 6.5625H9.875V4.6875H14.5938C14.8531 4.6875 15.0625 4.89687 15.0625 5.15625V6.09375Z" fill="#473F69" stroke="#473F69" stroke-width="0.25"/>
</svg>
