<svg width="20" height="20" viewBox="0 0 20 20" xmlns="http://www.w3.org/2000/svg">
<path d="M17.097 1H2.89377C1.85036 1 1 1.85495 1 2.89837V17.1016C1 18.1496 1.85495 19 2.89837 19H17.1016C18.1496 19 19 18.145 19 17.1016V2.89837C18.9954 1.85036 18.145 1 17.097 1ZM18.0945 17.097C18.0945 17.644 17.644 18.0945 17.097 18.0945H2.89377C2.34678 18.0945 1.89632 17.644 1.89632 17.097V14.7252L5.30695 11.3146L8.22114 14.2288C8.39581 14.4035 8.6808 14.4035 8.85546 14.2288L14.1231 8.96118L18.0853 12.9234V17.097H18.0945ZM18.0945 11.6547L14.4448 8.0097C14.2702 7.83504 13.9852 7.83504 13.8105 8.0097L8.5475 13.2727L5.6333 10.3585C5.45863 10.1839 5.17365 10.1839 4.99898 10.3585L1.90552 13.452V2.89837C1.90552 2.35138 2.35598 1.90092 2.90296 1.90092H17.1062C17.6532 1.90092 18.1037 2.35138 18.1037 2.89837V11.6547H18.0945Z" />
<path fill-rule="evenodd" clip-rule="evenodd" d="M0.625 2.89837C0.625 1.64903 1.64207 0.625 2.89377 0.625H17.097C18.3525 0.625 19.3695 1.64321 19.375 2.89672L19.375 2.89837L19.375 17.1016C19.375 18.3516 18.3573 19.375 17.1016 19.375H2.89837C1.64844 19.375 0.625 18.3573 0.625 17.1016V2.89837ZM2.89377 1.375C2.05865 1.375 1.375 2.06088 1.375 2.89837V17.1016C1.375 17.9419 2.06147 18.625 2.89837 18.625H17.1016C17.9419 18.625 18.625 17.9385 18.625 17.1016V2.89919C18.6209 2.05706 17.9374 1.375 17.097 1.375H2.89377ZM2.90296 2.27592C2.56308 2.27592 2.28052 2.55849 2.28052 2.89837V12.5467L4.73381 10.0934C5.05493 9.77225 5.57735 9.77225 5.89846 10.0934L8.5475 12.7424L13.5454 7.74454C13.8665 7.42342 14.3889 7.42342 14.71 7.74454L17.7287 10.7594V2.89837C17.7287 2.55849 17.4461 2.27592 17.1062 2.27592H2.90296ZM1.53052 2.89837C1.53052 2.14427 2.14887 1.52592 2.90296 1.52592H17.1062C17.8603 1.52592 18.4787 2.14427 18.4787 2.89837V12.0297H17.9393L14.1798 8.27504C14.1516 8.24681 14.1039 8.24665 14.0757 8.27487L8.5475 13.8031L5.36813 10.6237C5.33991 10.5955 5.29237 10.5955 5.26414 10.6237L1.53052 14.3573V2.89837ZM14.1231 8.43085L18.4603 12.7681V16.722H18.4695V17.097C18.4695 17.8511 17.8511 18.4695 17.097 18.4695H2.89377C2.13968 18.4695 1.52132 17.8511 1.52132 17.097V14.5699L5.30695 10.7843L8.48631 13.9636C8.51453 13.9919 8.56208 13.9919 8.5903 13.9636L14.1231 8.43085ZM17.7103 17.2026V13.0787L14.1231 9.49151L9.12063 14.494C8.79951 14.8151 8.27709 14.8151 7.95598 14.494L5.30695 11.8449L2.27132 14.8806V17.097C2.27132 17.4369 2.55389 17.7195 2.89377 17.7195H17.097C17.401 17.7195 17.6592 17.4935 17.7103 17.2026Z" />
<path d="M6.58009 3.62921C5.32064 3.62921 4.29102 4.65883 4.29102 5.91828C4.29102 7.17773 5.31604 8.20735 6.58009 8.20735C7.84413 8.20735 8.86915 7.17773 8.86915 5.91828C8.86915 4.65883 7.83953 3.62921 6.58009 3.62921ZM6.58009 7.31103C5.81706 7.31103 5.19193 6.6859 5.19193 5.92288C5.19193 5.15986 5.81247 4.53473 6.58009 4.53473C7.3477 4.53473 7.96824 5.15986 7.96824 5.92288C7.96824 6.6859 7.34311 7.31103 6.58009 7.31103Z" />
<path fill-rule="evenodd" clip-rule="evenodd" d="M3.91602 5.91828C3.91602 4.45173 5.11353 3.25421 6.58009 3.25421C8.04664 3.25421 9.24415 4.45173 9.24415 5.91828C9.24415 7.38435 8.05173 8.58235 6.58009 8.58235C5.10844 8.58235 3.91602 7.38435 3.91602 5.91828ZM6.58009 4.00421C5.52774 4.00421 4.66602 4.86594 4.66602 5.91828C4.66602 6.97111 5.52364 7.83235 6.58009 7.83235C7.63653 7.83235 8.49415 6.97111 8.49415 5.91828C8.49415 4.86594 7.63243 4.00421 6.58009 4.00421ZM6.58009 4.90973C6.02038 4.90973 5.56693 5.36615 5.56693 5.92288C5.56693 6.4788 6.02417 6.93603 6.58009 6.93603C7.136 6.93603 7.59324 6.4788 7.59324 5.92288C7.59324 5.36615 7.13979 4.90973 6.58009 4.90973ZM4.81693 5.92288C4.81693 4.95356 5.60455 4.15973 6.58009 4.15973C7.55562 4.15973 8.34324 4.95356 8.34324 5.92288C8.34324 6.89301 7.55022 7.68603 6.58009 7.68603C5.60996 7.68603 4.81693 6.89301 4.81693 5.92288Z" />
</svg>
