<svg width="16" height="16" viewBox="0 0 16 16" xmlns="http://www.w3.org/2000/svg">
<path d="M8 1C4.13906 1 1 4.13906 1 8C1 11.8609 4.13906 15 8 15C11.8609 15 15 11.8609 15 8C15 4.13906 11.8609 1 8 1ZM8 14.4996C4.41523 14.4996 1.50039 11.5848 1.50039 8C1.50039 4.41523 4.41523 1.50039 8 1.50039C11.5848 1.50039 14.4996 4.41523 14.4996 8C14.4996 11.5848 11.5848 14.4996 8 14.4996Z" />
<path fill-rule="evenodd" clip-rule="evenodd" d="M0.625 8C0.625 3.93196 3.93196 0.625 8 0.625C12.068 0.625 15.375 3.93196 15.375 8C15.375 12.068 12.068 15.375 8 15.375C3.93196 15.375 0.625 12.068 0.625 8ZM8 1.87539C4.62234 1.87539 1.87539 4.62234 1.87539 8C1.87539 11.3777 4.62234 14.1246 8 14.1246C11.3777 14.1246 14.1246 11.3777 14.1246 8C14.1246 4.62234 11.3777 1.87539 8 1.87539Z" />
<path d="M10.6887 5.64294C10.1773 5.64294 9.76172 6.05857 9.76172 6.5699C9.76172 7.08122 10.1773 7.49685 10.6887 7.49685C11.2 7.49685 11.6156 7.08122 11.6156 6.5699C11.6156 6.05857 11.2 5.64294 10.6887 5.64294Z" />
<path fill-rule="evenodd" clip-rule="evenodd" d="M9.38672 6.5699C9.38672 5.85146 9.97024 5.26794 10.6887 5.26794C11.4071 5.26794 11.9906 5.85146 11.9906 6.5699C11.9906 7.28833 11.4071 7.87185 10.6887 7.87185C9.97024 7.87185 9.38672 7.28833 9.38672 6.5699ZM10.6887 6.01794C10.3845 6.01794 10.1367 6.26568 10.1367 6.5699C10.1367 6.87412 10.3845 7.12185 10.6887 7.12185C10.9929 7.12185 11.2406 6.87412 11.2406 6.5699C11.2406 6.26568 10.9929 6.01794 10.6887 6.01794Z" />
<path d="M6.12511 7.00466C6.1716 7.08396 6.25363 7.12771 6.34113 7.12771C6.38488 7.12771 6.42863 7.11677 6.46964 7.09216C6.58722 7.02107 6.62824 6.86794 6.55714 6.75037C6.28097 6.28826 5.79699 6.01208 5.25831 6.01208C4.71964 6.01208 4.23566 6.28826 3.95949 6.75037C3.88839 6.86794 3.92667 7.0238 4.04699 7.09216C4.16457 7.16326 4.32042 7.12498 4.38878 7.00466C4.57199 6.69568 4.89738 6.51248 5.25831 6.51248C5.61378 6.51248 5.93917 6.69568 6.12511 7.00466Z" />
<path fill-rule="evenodd" clip-rule="evenodd" d="M3.63785 6.55737C3.9814 5.98299 4.58708 5.63708 5.2582 5.63708C5.92955 5.63708 6.53543 5.98324 6.87892 6.55799L6.55702 6.75037L6.87792 6.55633C7.06072 6.85865 6.95076 7.23941 6.66356 7.41306L6.66246 7.41372L6.66246 7.41372C6.56024 7.47505 6.44924 7.50271 6.34101 7.50271C6.12716 7.50271 5.9199 7.39429 5.80293 7.19676C5.68444 7.00082 5.48113 6.88748 5.2582 6.88748C5.02855 6.88748 4.82732 7.00169 4.71243 7.1939C4.53689 7.49773 4.14903 7.58888 3.85723 7.4157C3.55256 7.23937 3.46203 6.84942 3.63785 6.55737ZM6.44707 6.81264L6.44853 6.81501L6.4485 6.81502M4.28093 6.94329L4.28086 6.94341L4.28027 6.9444C4.28047 6.94407 4.28067 6.94374 4.28086 6.94341C4.28088 6.94337 4.28091 6.94333 4.28093 6.94329Z" />
<path d="M10.3667 9.95515C10.2491 9.88406 10.0932 9.92234 10.0249 10.0427C9.59559 10.7618 8.83817 11.1911 8.00145 11.1911C7.16473 11.1911 6.40731 10.7618 5.97801 10.0427C5.90692 9.92508 5.75379 9.88406 5.63621 9.95515C5.51864 10.0262 5.47762 10.1794 5.54871 10.297C6.06824 11.1692 6.987 11.6887 8.00145 11.6887C9.0159 11.6887 9.93465 11.1692 10.4542 10.297C10.5225 10.1794 10.4843 10.0262 10.3667 9.95515Z" />
<path fill-rule="evenodd" clip-rule="evenodd" d="M9.70171 9.85301C9.87825 9.54798 10.2689 9.45761 10.5611 9.63426C10.8545 9.81168 10.9495 10.1918 10.7787 10.4854L10.7767 10.4889L10.7767 10.4889C10.1892 11.4752 9.14779 12.0638 8.0018 12.0638C6.85614 12.0638 5.81496 11.4755 5.2274 10.4897C5.04567 10.1876 5.15573 9.80767 5.44253 9.63426C5.74485 9.45146 6.1256 9.56143 6.29926 9.84863L6.30035 9.85044L6.30035 9.85044C6.6619 10.4561 7.29696 10.8161 8.0018 10.8161C8.70563 10.8161 9.3399 10.4571 9.70171 9.85301Z" />
</svg>
