<svg width="151" height="39" viewBox="0 0 151 39" fill="none" xmlns="http://www.w3.org/2000/svg">
<path d="M55.699 7.36598C56.0056 8.00999 55.8523 9.25199 55.239 11.092C54.411 13.576 53.0616 17.1793 51.191 21.902C49.903 25.0913 48.339 28.4033 46.499 31.838C48.1856 29.9367 49.5503 28.8173 50.593 28.48C50.7463 28.4493 50.869 28.48 50.961 28.572C50.8076 28.664 50.5623 28.8173 50.225 29.032C49.2436 29.676 48.109 30.8413 46.821 32.528C46.2383 33.2947 45.441 34.23 44.429 35.334C43.8156 36.0087 43.4936 36.346 43.463 36.346C42.9416 36.1927 42.8036 35.886 43.049 35.426C43.2943 34.966 43.601 34.3833 43.969 33.678C44.613 32.3593 46.269 28.4033 48.937 21.81C50.0716 18.9887 51.8043 14.9867 54.135 9.80399C54.3496 9.34399 54.5336 8.86865 54.687 8.37799C54.8096 7.97932 54.8403 7.77998 54.779 7.77998C54.7483 7.74932 54.6256 7.90265 54.411 8.23999C54.1963 8.54665 53.8896 9.02199 53.491 9.66599C52.019 12.0887 49.673 15.3853 46.453 19.556C44.5516 22.0093 41.7456 25.168 38.035 29.032C36.5016 30.6267 34.585 32.4053 32.285 34.368C31.5796 35.472 30.951 35.9473 30.399 35.794C30.0616 35.7327 30.1383 35.3187 30.629 34.552C30.813 34.276 31.043 33.9693 31.319 33.632C31.9323 32.16 32.7143 30.09 33.665 27.422C35.0143 23.65 36.149 20.2307 37.069 17.164L40.059 7.31998L39.599 7.27399C37.575 10.6473 35.1063 14.174 32.193 17.854C29.433 21.2887 26.857 24.1713 24.465 26.502C20.5703 30.274 16.6756 33.218 12.781 35.334C9.3463 37.2047 6.50963 38.1553 4.27096 38.186C1.90963 38.2167 0.606295 37.68 0.360962 36.576C0.176962 35.7787 0.514295 34.9967 1.37296 34.23C2.0783 33.586 2.93696 33.126 3.94896 32.85C4.43963 32.7273 4.7003 32.6967 4.73096 32.758C4.73096 32.7887 4.6083 32.8653 4.36296 32.988C3.56563 33.2947 2.89096 33.77 2.33896 34.414C1.78696 35.058 1.58763 35.6713 1.74096 36.254C1.95563 37.1433 2.89096 37.588 4.54696 37.588C9.3923 37.588 16.3536 33.1567 25.431 24.294C30.2763 19.5713 34.815 13.8673 39.047 7.18199C38.1576 7.02865 36.701 6.78332 34.677 6.44599C29.3716 5.55665 26.5656 5.09665 26.259 5.06599C23.1923 4.60599 20.4476 4.34532 18.025 4.28399C15.5103 4.19198 13.379 4.46799 11.631 5.11199C9.05496 6.03199 7.85896 7.61132 8.04296 9.84999C8.1043 10.7087 8.6563 11.6593 9.69896 12.702C10.619 13.6527 11.585 14.358 12.597 14.818C12.965 14.9713 13.1336 15.0787 13.103 15.14C13.0723 15.1707 12.8576 15.1247 12.459 15.002C11.0176 14.542 9.68363 13.8827 8.45696 13.024C7.2303 12.1347 6.4943 11.2607 6.24896 10.402C6.1263 9.94199 6.06496 9.51265 6.06496 9.11399C6.06496 6.99799 7.67496 5.47999 10.895 4.55999C13.2256 3.91599 15.7863 3.67065 18.577 3.82399C23.5756 4.09999 29.0036 4.71332 34.861 5.66398C34.8916 5.66398 36.4096 5.95532 39.415 6.53799C40.4576 4.94332 41.3163 3.08798 41.991 0.971984C42.083 0.665318 42.1903 0.527318 42.313 0.557984C42.589 0.619319 42.7423 1.00265 42.773 1.70799C42.8036 2.50532 42.6656 3.63998 42.359 5.11199C42.267 5.57199 42.129 6.18532 41.945 6.95199C44.337 7.31999 46.131 7.51932 47.327 7.54998C48.0323 7.58065 48.385 7.59599 48.385 7.59599C48.385 7.77999 48.017 7.87199 47.281 7.87199C45.6556 7.87199 43.831 7.76465 41.807 7.54998C41.347 9.66599 40.5036 13.0087 39.277 17.578C38.4183 20.4607 37.161 23.88 35.505 27.836C34.5543 30.1053 33.6956 31.8993 32.929 33.218C34.769 31.5007 36.2563 30.044 37.391 28.848C39.323 26.824 40.657 25.4133 41.393 24.616C43.0183 22.8067 44.5363 21.0127 45.947 19.234C48.707 15.738 51.0223 12.5333 52.893 9.61999C53.4143 8.79199 53.9203 8.05599 54.411 7.41199C54.6563 7.07465 54.9016 6.92132 55.147 6.95199C55.423 7.01332 55.607 7.15132 55.699 7.36598ZM40.749 5.06599C40.6876 5.15799 40.5496 5.41865 40.335 5.84798C40.1203 6.24665 39.9823 6.50732 39.921 6.62999L40.243 6.67598C40.3656 6.33865 40.5343 5.80199 40.749 5.06599Z" fill="#1E1E1E"/>
<path d="M63.6645 21.856C63.1125 23.2053 62.2692 25.3367 61.1345 28.25C60.4292 30.09 59.6012 31.884 58.6505 33.632C59.4478 32.62 60.2758 31.7767 61.1345 31.102C61.8398 30.55 62.3765 30.2127 62.7445 30.09C62.9285 29.998 63.0358 29.9827 63.0665 30.044C63.1278 30.136 63.0512 30.228 62.8365 30.32C62.3458 30.5653 61.7018 31.0713 60.9045 31.838C60.1072 32.6047 59.3405 33.4327 58.6045 34.322C58.1138 34.9047 57.6845 35.1653 57.3165 35.104C56.8872 35.0427 56.8105 34.7053 57.0865 34.092C57.8225 32.436 58.8805 29.814 60.2605 26.226C59.1258 28.25 57.8225 30.0287 56.3505 31.562C55.0012 32.9727 53.9585 33.6627 53.2225 33.632C52.3025 33.5707 51.8425 32.896 51.8425 31.608C51.8425 30.596 52.1492 29.4153 52.7625 28.066C53.4678 26.5327 54.5718 25.076 56.0745 23.696C57.7918 22.1013 59.2638 21.3347 60.4905 21.396C61.2572 21.4267 61.6865 21.7947 61.7785 22.5C61.9932 22.1013 62.1618 21.81 62.2845 21.626C62.5605 21.258 62.8672 21.1047 63.2045 21.166C63.6645 21.258 63.8178 21.488 63.6645 21.856ZM61.2265 23.236C61.2878 23.052 61.3185 22.8833 61.3185 22.73C61.3185 22.1473 61.0118 21.856 60.3985 21.856C59.4172 21.856 58.3132 22.6073 57.0865 24.11C56.0132 25.49 55.0012 27.238 54.0505 29.354C53.5292 30.5193 53.2685 31.4393 53.2685 32.114C53.2685 32.5433 53.4218 32.7733 53.7285 32.804C54.3418 32.8347 55.2772 32.1293 56.5345 30.688C57.6078 29.4613 58.6658 28.02 59.7085 26.364C60.3218 25.352 60.8278 24.3093 61.2265 23.236Z" fill="#1E1E1E"/>
<path d="M74.4188 22.408C74.2655 23.3587 73.6368 24.1713 72.5328 24.846C72.2568 25.03 72.0728 25.076 71.9808 24.984C71.7968 24.892 71.8275 24.662 72.0728 24.294C72.4101 23.8033 72.5788 23.512 72.5788 23.42C72.6708 22.9293 72.5635 22.6533 72.2568 22.592C71.9808 22.5307 71.7048 22.638 71.4288 22.914C70.8461 23.4047 70.3708 23.8493 70.0028 24.248C69.1748 25.1373 68.3928 26.18 67.6568 27.376C66.8595 29.124 65.7708 31.194 64.3908 33.586C64.2988 33.6473 64.1455 33.8007 63.9308 34.046C63.6855 34.2913 63.3635 34.4907 62.9648 34.644C62.5968 34.7667 62.3515 34.7513 62.2288 34.598C62.2595 34.6593 62.3975 34.4907 62.6428 34.092C63.3788 32.9267 64.2681 31.0407 65.3108 28.434C66.3535 25.8273 66.9821 23.7727 67.1968 22.27C66.8901 22.3927 66.5988 22.4693 66.3228 22.5C66.1081 22.5 65.9855 22.4693 65.9548 22.408C65.9241 22.2853 66.0161 22.1933 66.2308 22.132C67.4575 21.764 68.3468 21.3653 68.8988 20.936C69.0828 20.844 69.2361 20.8287 69.3588 20.89C69.4508 20.982 69.4661 21.1507 69.4048 21.396C68.9755 23.2973 68.3008 25.214 67.3808 27.146C67.9328 26.318 68.7915 25.168 69.9568 23.696C70.7541 22.8373 71.4748 22.2087 72.1188 21.81C72.6708 21.4727 73.1461 21.304 73.5448 21.304C74.2501 21.304 74.5415 21.672 74.4188 22.408Z" fill="#1E1E1E"/>
<path d="M89.1072 22.408C88.5858 23.6347 87.7885 25.5667 86.7152 28.204C86.2858 29.2773 85.7032 30.9333 84.9672 33.172C84.8752 33.5707 84.9058 33.8007 85.0592 33.862C85.3045 33.8927 85.6572 33.678 86.1172 33.218C86.3318 33.0033 86.4698 32.9113 86.5312 32.942C86.6232 33.034 86.5618 33.1873 86.3472 33.402C85.3352 34.506 84.5225 35.012 83.9092 34.92C83.3878 34.8587 83.1732 34.3987 83.2652 33.54C83.3878 32.5893 84.0012 30.7033 85.1052 27.882C85.4732 26.962 86.0712 25.5053 86.8992 23.512C87.0525 23.1133 87.0832 22.8987 86.9912 22.868C86.8992 22.8067 86.6998 22.9293 86.3932 23.236C85.0132 24.616 83.8632 25.8887 82.9432 27.054C82.0232 28.1887 80.7812 30.1053 79.2172 32.804C79.1252 32.9573 78.8952 33.2333 78.5272 33.632C78.1899 34 77.8985 34.1533 77.6532 34.092C77.4998 34.0307 77.5612 33.6473 77.8372 32.942C78.2052 31.93 78.8492 30.2433 79.7692 27.882C80.1678 26.9313 80.7505 25.4747 81.5172 23.512C81.6398 23.144 81.6705 22.9447 81.6092 22.914C81.4865 22.8527 81.2872 22.96 81.0112 23.236C79.7538 24.4933 78.5885 25.7813 77.5152 27.1C76.7792 27.9893 75.5678 29.8293 73.8812 32.62C73.7278 32.804 73.4825 33.126 73.1452 33.586C72.9612 33.954 72.7312 34.092 72.4552 34C72.1792 33.8773 72.1485 33.5553 72.3632 33.034C72.7005 32.1753 73.4518 30.228 74.6172 27.192L76.5492 22.086C76.6718 21.7793 76.6105 21.626 76.3652 21.626C76.2118 21.626 75.8592 21.7793 75.3072 22.086C75.1232 22.2087 75.0159 22.2393 74.9852 22.178C74.9545 22.1167 75.0158 22.0093 75.1692 21.856C76.0892 21.028 76.9325 20.568 77.6992 20.476C78.0978 20.4453 78.3585 20.5373 78.4812 20.752C78.5732 20.936 78.5732 21.1967 78.4812 21.534C78.2665 22.3007 77.8525 23.4353 77.2392 24.938C76.4112 26.8393 75.8745 28.1427 75.6292 28.848C76.5185 27.6827 77.4998 26.4713 78.5732 25.214C79.8612 23.742 80.9958 22.592 81.9772 21.764C82.6212 21.2427 83.1425 21.0587 83.5412 21.212C83.8785 21.3653 83.9245 21.764 83.6792 22.408C83.4339 23.0213 82.5598 25.1527 81.0572 28.802C82.0078 27.5447 82.9738 26.3487 83.9552 25.214C85.2125 23.7727 86.3472 22.6227 87.3592 21.764C88.0032 21.2427 88.5245 21.0587 88.9232 21.212C89.3218 21.3653 89.3832 21.764 89.1072 22.408Z" fill="#1E1E1E"/>
<path d="M99.39 21.672C99.39 22.2853 99.0986 22.8373 98.516 23.328C97.5653 24.1253 96.4766 24.4627 95.25 24.34C94.7593 24.2787 94.3146 24.156 93.916 23.972C93.364 24.7693 92.9346 25.4593 92.628 26.042C91.7386 27.8513 91.0946 29.4613 90.696 30.872C90.5426 31.4853 90.466 32.0067 90.466 32.436C90.466 33.1413 90.6653 33.5553 91.064 33.678C91.524 33.8007 92.1066 33.586 92.812 33.034C93.548 32.482 94.1613 31.7767 94.652 30.918C95.1733 30.0593 95.572 29.0933 95.848 28.02C95.94 27.652 96.032 27.468 96.124 27.468C96.2466 27.468 96.2926 27.6367 96.262 27.974C96.2313 28.8327 95.8633 29.86 95.158 31.056C93.7166 33.5093 92.214 34.6133 90.65 34.368C89.454 34.184 88.856 33.31 88.856 31.746C88.856 31.194 88.9326 30.6113 89.086 29.998C89.546 28.1887 90.3586 26.5327 91.524 25.03C93.7626 22.2087 96.0166 20.8133 98.286 20.844C99.022 20.844 99.39 21.12 99.39 21.672ZM98.056 21.81C98.056 21.5033 97.872 21.35 97.504 21.35C96.9826 21.35 96.3386 21.6413 95.572 22.224C94.928 22.7147 94.4526 23.19 94.146 23.65C94.5446 23.8647 94.9586 23.972 95.388 23.972C96.032 24.0027 96.6453 23.7727 97.228 23.282C97.8106 22.7607 98.0866 22.27 98.056 21.81Z" fill="#1E1E1E"/>
<path d="M110.408 10.448C110.408 10.4787 110.331 10.54 110.178 10.632C109.902 10.7853 109.626 11 109.35 11.276C108.829 11.7973 108.001 13.0087 106.866 14.91C105.578 17.118 104.459 19.28 103.508 21.396C101.545 25.812 100.227 29.308 99.5521 31.884C99.2454 33.0187 99.1994 33.6167 99.4141 33.678C99.8741 33.8313 100.518 33.2027 101.346 31.792C101.653 31.3013 101.821 31.056 101.852 31.056C102.036 31.1173 101.944 31.47 101.576 32.114C100.564 33.8007 99.6287 34.6287 98.7701 34.598C98.0034 34.5673 97.6661 33.9693 97.7581 32.804C97.8194 32.0067 97.9881 31.1787 98.2641 30.32C99.3374 26.8547 100.549 23.7113 101.898 20.89C104.045 16.3513 106.299 13.1007 108.66 11.138C109.273 10.6167 109.795 10.356 110.224 10.356C110.316 10.356 110.377 10.3867 110.408 10.448Z" fill="#1E1E1E"/>
<path d="M115.639 21.856C115.087 23.2053 114.244 25.3367 113.109 28.25C112.404 30.09 111.576 31.884 110.625 33.632C111.422 32.62 112.25 31.7767 113.109 31.102C113.814 30.55 114.351 30.2127 114.719 30.09C114.903 29.998 115.01 29.9827 115.041 30.044C115.102 30.136 115.026 30.228 114.811 30.32C114.32 30.5653 113.676 31.0713 112.879 31.838C112.082 32.6047 111.315 33.4327 110.579 34.322C110.088 34.9047 109.659 35.1653 109.291 35.104C108.862 35.0427 108.785 34.7053 109.061 34.092C109.797 32.436 110.855 29.814 112.235 26.226C111.1 28.25 109.797 30.0287 108.325 31.562C106.976 32.9727 105.933 33.6627 105.197 33.632C104.277 33.5707 103.817 32.896 103.817 31.608C103.817 30.596 104.124 29.4153 104.737 28.066C105.442 26.5327 106.546 25.076 108.049 23.696C109.766 22.1013 111.238 21.3347 112.465 21.396C113.232 21.4267 113.661 21.7947 113.753 22.5C113.968 22.1013 114.136 21.81 114.259 21.626C114.535 21.258 114.842 21.1047 115.179 21.166C115.639 21.258 115.792 21.488 115.639 21.856ZM113.201 23.236C113.262 23.052 113.293 22.8833 113.293 22.73C113.293 22.1473 112.986 21.856 112.373 21.856C111.392 21.856 110.288 22.6073 109.061 24.11C107.988 25.49 106.976 27.238 106.025 29.354C105.504 30.5193 105.243 31.4393 105.243 32.114C105.243 32.5433 105.396 32.7733 105.703 32.804C106.316 32.8347 107.252 32.1293 108.509 30.688C109.582 29.4613 110.64 28.02 111.683 26.364C112.296 25.352 112.802 24.3093 113.201 23.236Z" fill="#1E1E1E"/>
<path d="M129.291 21.442C129.046 21.6873 128.54 21.626 127.773 21.258C127.313 21.0433 126.899 20.798 126.531 20.522C126.163 23.1593 125.274 25.7813 123.863 28.388C123.005 29.9827 121.947 31.3627 120.689 32.528C119.34 33.816 118.236 34.3833 117.377 34.23C116.243 34.046 115.675 33.172 115.675 31.608C115.675 30.3813 116.105 28.8633 116.963 27.054C118.343 24.0793 120.459 22.2393 123.311 21.534C123.833 21.4113 124.093 21.4267 124.093 21.58C124.093 21.6107 123.848 21.718 123.357 21.902C121.456 22.5767 119.831 24.5087 118.481 27.698C117.561 29.8447 117.101 31.5007 117.101 32.666C117.101 33.31 117.27 33.6627 117.607 33.724C118.159 33.8467 118.957 33.2487 119.999 31.93C121.195 30.366 122.253 28.3267 123.173 25.812C123.603 24.616 123.94 23.65 124.185 22.914C124.553 21.626 124.814 20.476 124.967 19.464C124.722 19.2187 124.385 18.8353 123.955 18.314C122.882 16.8727 122.345 15.508 122.345 14.22C122.345 12.8707 122.713 12.1653 123.449 12.104C124.124 12.0733 124.753 12.4567 125.335 13.254C126.041 14.174 126.455 15.37 126.577 16.842C126.669 17.8847 126.669 18.9273 126.577 19.97C126.945 20.338 127.467 20.706 128.141 21.074C128.387 21.1967 128.663 21.2887 128.969 21.35C129.184 21.3807 129.291 21.4113 129.291 21.442ZM125.151 17.072C125.09 15.5693 124.845 14.3733 124.415 13.484C124.047 12.7787 123.695 12.426 123.357 12.426C123.204 12.426 123.127 12.7787 123.127 13.484C123.127 14.128 123.173 14.68 123.265 15.14C123.541 16.52 124.139 17.7773 125.059 18.912C125.151 18.3293 125.182 17.716 125.151 17.072Z" fill="#1E1E1E"/>
<path d="M135.768 13.76C135.155 14.496 134.465 15.4467 133.698 16.612C133.422 17.3173 133.161 17.6393 132.916 17.578C132.701 17.5473 132.517 17.4093 132.364 17.164C132.241 16.9187 132.226 16.6733 132.318 16.428C132.471 15.9373 132.962 15.4007 133.79 14.818C134.526 14.2967 135.185 13.944 135.768 13.76ZM132.41 21.35C131.49 23.006 130.601 24.9533 129.742 27.192C128.945 29.2467 128.285 31.0713 127.764 32.666C128.561 31.93 129.313 31.3933 130.018 31.056C130.263 30.9333 130.386 30.9333 130.386 31.056C130.386 31.056 130.125 31.2553 129.604 31.654C129.083 32.022 128.5 32.574 127.856 33.31C126.875 34.414 126.307 34.9507 126.154 34.92C125.755 34.92 125.571 34.7207 125.602 34.322C125.602 34.23 125.633 34.1073 125.694 33.954C126.154 32.4513 126.921 30.1973 127.994 27.192C128.515 25.9347 129.313 24.2173 130.386 22.04C130.049 22.1933 129.788 22.3007 129.604 22.362C129.267 22.362 129.098 22.316 129.098 22.224C129.098 22.132 129.313 22.0247 129.742 21.902C130.447 21.6873 131.183 21.3653 131.95 20.936C132.257 20.7827 132.441 20.7367 132.502 20.798C132.594 20.89 132.563 21.074 132.41 21.35Z" fill="#1E1E1E"/>
<path d="M142.65 21.672C142.65 22.2853 142.358 22.8373 141.776 23.328C140.825 24.1253 139.736 24.4627 138.51 24.34C138.019 24.2787 137.574 24.156 137.176 23.972C136.624 24.7693 136.194 25.4593 135.888 26.042C134.998 27.8513 134.354 29.4613 133.956 30.872C133.802 31.4853 133.726 32.0067 133.726 32.436C133.726 33.1413 133.925 33.5553 134.324 33.678C134.784 33.8007 135.366 33.586 136.072 33.034C136.808 32.482 137.421 31.7767 137.912 30.918C138.433 30.0593 138.832 29.0933 139.108 28.02C139.2 27.652 139.292 27.468 139.384 27.468C139.506 27.468 139.552 27.6367 139.522 27.974C139.491 28.8327 139.123 29.86 138.418 31.056C136.976 33.5093 135.474 34.6133 133.91 34.368C132.714 34.184 132.116 33.31 132.116 31.746C132.116 31.194 132.192 30.6113 132.346 29.998C132.806 28.1887 133.618 26.5327 134.784 25.03C137.022 22.2087 139.276 20.8133 141.546 20.844C142.282 20.844 142.65 21.12 142.65 21.672ZM141.316 21.81C141.316 21.5033 141.132 21.35 140.764 21.35C140.242 21.35 139.598 21.6413 138.832 22.224C138.188 22.7147 137.712 23.19 137.406 23.65C137.804 23.8647 138.218 23.972 138.648 23.972C139.292 24.0027 139.905 23.7727 140.488 23.282C141.07 22.7607 141.346 22.27 141.316 21.81Z" fill="#1E1E1E"/>
<path d="M150.172 21.672C150.264 22.5 149.743 23.1747 148.608 23.696C148.915 23.144 149.068 22.592 149.068 22.04C149.068 21.5187 148.915 21.2273 148.608 21.166C147.78 21.0127 147.228 21.488 146.952 22.592C146.798 23.144 146.722 23.9107 146.722 24.892C146.66 26.6707 146.63 27.6213 146.63 27.744C146.507 30.0133 145.725 31.8227 144.284 33.172C143.088 34.3373 141.861 34.874 140.604 34.782C139.285 34.69 138.733 34.0153 138.948 32.758C139.132 31.562 139.929 30.5807 141.34 29.814C142.321 29.262 142.873 29.078 142.996 29.262C142.996 29.2927 142.873 29.3693 142.628 29.492C142.29 29.7067 141.969 29.9367 141.662 30.182C140.865 30.8567 140.389 31.6693 140.236 32.62C140.174 32.8347 140.144 33.034 140.144 33.218C140.144 33.862 140.45 34.23 141.064 34.322C142.045 34.4447 142.888 33.862 143.594 32.574C144.299 31.286 144.683 29.6453 144.744 27.652C144.805 25.444 145.066 23.834 145.526 22.822C146.17 21.3807 147.228 20.6907 148.7 20.752C149.62 20.7827 150.11 21.0893 150.172 21.672Z" fill="#1E1E1E"/>
</svg>
