<svg width="18" height="13" viewBox="0 0 18 13" fill="none" xmlns="http://www.w3.org/2000/svg">
<path d="M15.0429 1H2.95707C1.87717 1 1 1.8455 1 2.88643V10.8509C1 11.8918 1.87717 12.7373 2.95707 12.7373H15.0429C16.1228 12.7373 17 11.8918 17 10.8509V2.89041C17 1.84949 16.1228 1 15.0429 1ZM16.1063 10.8509C16.1063 11.4172 15.6305 11.8759 15.0429 11.8759H2.95707C2.36954 11.8759 1.89372 11.4172 1.89372 10.8509V2.89041C1.89372 2.32409 2.36954 1.86544 2.95707 1.86544H15.0429C15.6305 1.86544 16.1063 2.32409 16.1063 2.89041V10.8509Z" fill="#473F69" stroke="#473F69" stroke-width="0.5"/>
<path d="M11.0881 6.76561L15.0023 3.3836C15.1843 3.22407 15.2009 2.95287 15.0354 2.7734C14.8699 2.59792 14.5885 2.58197 14.4023 2.7415L9.00692 7.40771L7.95598 6.50238C7.95184 6.4984 7.9477 6.49441 7.9477 6.49441C7.92288 6.47048 7.90219 6.45452 7.87322 6.43458L3.59084 2.7415C3.40464 2.58197 3.12329 2.59792 2.95779 2.77739C2.79228 2.95686 2.80883 3.22806 2.99502 3.38759L6.95468 6.79751L3.01158 10.355C2.83366 10.5185 2.82125 10.7897 2.99089 10.9652C3.08191 11.0529 3.19777 11.1008 3.31776 11.1008C3.42533 11.1008 3.53705 11.0609 3.62394 10.9851L7.62497 7.3758L8.70901 8.30905C8.7959 8.38083 8.89934 8.41673 9.00692 8.41673C9.1145 8.41673 9.22207 8.37684 9.30482 8.30506L10.422 7.33991L14.4023 10.9851C14.4892 11.0649 14.6009 11.1048 14.7085 11.1048C14.8285 11.1048 14.9443 11.0609 15.0312 10.9692C15.2009 10.7977 15.1926 10.5225 15.0147 10.359L11.0881 6.76561Z" fill="#473F69" stroke="#473F69" stroke-width="0.5"/>
</svg>
