<svg width="16" height="16" viewBox="0 0 16 16" xmlns="http://www.w3.org/2000/svg">
<path d="M15.9167 0.458609C15.845 0.396557 15.7433 0.377941 15.6596 0.421378L0.137523 7.90488C0.0538132 7.94832 0 8.02899 0 8.12827C0 8.22135 0.0538132 8.31443 0.131543 8.35166L4.52629 10.5917C4.60402 10.6352 4.70566 10.6228 4.77741 10.5669L9.04659 7.25333L5.69224 10.8338C5.6444 10.8834 5.62049 10.9517 5.62647 11.0261L5.9613 15.5373C5.96728 15.6366 6.03305 15.7235 6.12274 15.7545C6.14666 15.7607 6.17058 15.7669 6.20047 15.7669C6.26624 15.7669 6.338 15.7359 6.37985 15.68L8.71175 12.8753L11.5937 14.3025C11.6535 14.3335 11.7313 14.3335 11.7911 14.3087C11.8568 14.2777 11.9047 14.2218 11.9226 14.1535L15.9885 0.719229C16.0184 0.62615 15.9885 0.520661 15.9167 0.458609Z" />
</svg>
