<svg width="22" height="22" viewBox="0 0 22 22" xmlns="http://www.w3.org/2000/svg">
<path d="M11 21.4093C16.5163 21.4093 21 16.9227 21 11.4029C21 5.88301 16.5163 1.39642 11 1.39642C5.4837 1.39642 1 5.88301 1 11.4029C1 16.9227 5.4837 21.4093 11 21.4093ZM11 2.26655C16.0326 2.26655 20.1304 6.36701 20.1304 11.4029C20.1304 16.4387 16.0326 20.5392 11 20.5392C5.96739 20.5392 1.86957 16.4387 1.86957 11.4029C1.86957 6.36701 5.96739 2.26655 11 2.26655Z" />
<path fill-rule="evenodd" clip-rule="evenodd" d="M0.5 11.4029C0.5 5.60717 5.20725 0.896423 11 0.896423C16.7927 0.896423 21.5 5.60717 21.5 11.4029C21.5 17.1986 16.7927 21.9093 11 21.9093C5.20725 21.9093 0.5 17.1986 0.5 11.4029ZM11 2.76655C6.24384 2.76655 2.36957 6.64285 2.36957 11.4029C2.36957 16.1629 6.24384 20.0392 11 20.0392C15.7562 20.0392 19.6304 16.1629 19.6304 11.4029C19.6304 6.64285 15.7562 2.76655 11 2.76655Z" />
<path d="M7.52209 10.9678C8.23947 10.9678 8.82642 10.3805 8.82642 9.66263C8.82642 8.94476 8.23947 8.35742 7.52209 8.35742C6.80472 8.35742 6.21777 8.94476 6.21777 9.66263C6.21777 10.3805 6.80472 10.9678 7.52209 10.9678Z" />
<path fill-rule="evenodd" clip-rule="evenodd" d="M5.71777 9.66263C5.71777 8.66894 6.52826 7.85742 7.52209 7.85742C8.51593 7.85742 9.32642 8.66894 9.32642 9.66263C9.32642 10.6563 8.51593 11.4678 7.52209 11.4678C6.52826 11.4678 5.71777 10.6563 5.71777 9.66263ZM7.52209 8.85742C7.08118 8.85742 6.71777 9.22059 6.71777 9.66263C6.71777 10.1047 7.08118 10.4678 7.52209 10.4678C7.96301 10.4678 8.32642 10.1047 8.32642 9.66263C8.32642 9.22059 7.96301 8.85742 7.52209 8.85742Z" />
<path d="M14.4781 10.9678C15.1955 10.9678 15.7825 10.3805 15.7825 9.66263C15.7825 8.94476 15.1955 8.35742 14.4781 8.35742C13.7608 8.35742 13.1738 8.94476 13.1738 9.66263C13.1738 10.3805 13.7608 10.9678 14.4781 10.9678Z" />
<path fill-rule="evenodd" clip-rule="evenodd" d="M12.6738 9.66263C12.6738 8.66894 13.4843 7.85742 14.4781 7.85742C15.472 7.85742 16.2825 8.66894 16.2825 9.66263C16.2825 10.6563 15.472 11.4678 14.4781 11.4678C13.4843 11.4678 12.6738 10.6563 12.6738 9.66263ZM14.4781 8.85742C14.0372 8.85742 13.6738 9.22059 13.6738 9.66263C13.6738 10.1047 14.0372 10.4678 14.4781 10.4678C14.9191 10.4678 15.2825 10.1047 15.2825 9.66263C15.2825 9.22059 14.9191 8.85742 14.4781 8.85742Z" />
<path d="M7.41281 13.725C7.24977 13.5455 6.97803 13.5292 6.79868 13.6923C6.61933 13.8501 6.60302 14.1274 6.76607 14.3069C7.83673 15.5033 9.38022 16.194 11.0052 16.194C12.6248 16.194 14.1683 15.5087 15.2444 14.3069C15.402 14.1274 15.3911 13.8501 15.2118 13.6923C15.0324 13.5292 14.7553 13.5455 14.5977 13.725C13.69 14.7365 12.3802 15.3184 11.0107 15.3184C9.62479 15.3184 8.31499 14.7365 7.41281 13.725Z" />
<path fill-rule="evenodd" clip-rule="evenodd" d="M6.46531 13.3197C6.85433 12.9689 7.43982 13.0112 7.78288 13.3888L7.78597 13.3922L7.78595 13.3922C8.59133 14.2952 9.76437 14.8184 11.0107 14.8184C12.2388 14.8184 13.4122 14.2966 14.2241 13.3926C14.5663 13.0056 15.1605 12.9729 15.5451 13.3197C15.9397 13.6697 15.9491 14.2622 15.6201 14.6368L15.6169 14.6404L15.6169 14.6404C14.4451 15.9491 12.7657 16.694 11.0052 16.694C9.23929 16.694 7.56051 15.9438 6.39452 14.6415C6.04694 14.2571 6.07889 13.6626 6.46531 13.3197Z" />
</svg>
