<svg width="13" height="16" viewBox="0 0 13 16" xmlns="http://www.w3.org/2000/svg">
<path d="M8.21233 0.287671L8.21233 12.5753L6.5 12.5753C6.41781 12.5753 6.34932 12.6027 6.29452 12.6575C6.23973 12.7123 6.21233 12.7808 6.21233 12.863C6.21233 12.9452 6.23973 13.0137 6.29452 13.0685L9.15753 15.9315C9.21233 15.9863 9.28082 16.0137 9.36301 16.0137C9.44521 16.0137 9.5137 15.9863 9.56849 15.9315L12.4041 13.0685C12.4589 13 12.5 12.9315 12.5 12.8493C12.5 12.7671 12.4726 12.6986 12.4178 12.6438C12.363 12.6027 12.2945 12.5753 12.2123 12.5753L10.5 12.5753L10.5 0.287671C10.5 0.205479 10.4726 0.136986 10.4178 0.0821917C10.363 0.0273972 10.2945 -9.64046e-08 10.2123 -9.99973e-08L8.5 -1.74846e-07C8.41781 -1.78438e-07 8.34932 0.0273971 8.29452 0.0821916C8.23973 0.136986 8.21233 0.205479 8.21233 0.287671Z" />
<path d="M4.78809 15.7123L4.78809 3.42466L6.50041 3.42466C6.58261 3.42466 6.6511 3.39726 6.70589 3.34247C6.76069 3.28767 6.78809 3.21918 6.78809 3.13699C6.78809 3.05479 6.76069 2.9863 6.70589 2.93151L3.84288 0.0821917C3.78809 0.0273971 3.73329 -1.33529e-07 3.6374 -1.37721e-07C3.55521 -1.41314e-07 3.50041 0.0273971 3.44562 0.0821916L0.582606 2.93151C0.527811 3 0.500414 3.06849 0.500414 3.15069C0.500414 3.23288 0.527811 3.30137 0.582606 3.35616C0.6374 3.41096 0.705893 3.43836 0.788085 3.43836L2.50041 3.43836L2.50041 15.726C2.50041 15.8082 2.52781 15.8767 2.58261 15.9315C2.6374 15.9863 2.70589 16.0137 2.78808 16.0137L4.50041 16.0137C4.58261 16.0137 4.6511 15.9863 4.70589 15.9315C4.76069 15.863 4.78809 15.7945 4.78809 15.7123Z" />
</svg>
