<svg width="16" height="16" viewBox="0 0 16 16" xmlns="http://www.w3.org/2000/svg">
<path d="M15.3048 5.14688L10.9024 4.73889C10.6184 4.70751 10.3817 4.5349 10.2712 4.26814L8.69332 0.470751C8.44085 -0.156917 7.54144 -0.156917 7.28898 0.470751L5.72685 4.26814C5.63217 4.5349 5.37971 4.70751 5.09568 4.73889L0.677537 5.14688C0.0148147 5.20965 -0.237651 6.02561 0.251501 6.46498L3.56511 9.36795C3.78602 9.55625 3.86491 9.8387 3.8018 10.1055L2.80771 14.1696C2.64992 14.813 3.3442 15.3308 3.92803 15.0013L7.60456 12.8672C7.84125 12.726 8.14105 12.726 8.37774 12.8672L12.0543 15.017C12.6381 15.3622 13.3324 14.8444 13.1746 14.1853L12.1963 10.1211C12.1332 9.8387 12.2278 9.57194 12.433 9.38364L15.7466 6.48067C16.2357 6.02561 15.9517 5.20965 15.3048 5.14688Z"/>
</svg>
